<svg width="470" height="645" viewBox="0 0 470 645" fill="none" xmlns="http://www.w3.org/2000/svg">
<path d="M321.314 241.232C321.275 242.899 320.588 244.484 319.398 245.649C318.209 246.814 316.612 247.466 314.949 247.466H314.812L308.775 247.338L308.751 248.536C308.627 254.451 306.381 260.123 302.425 264.512C298.468 268.901 293.066 271.713 287.209 272.432L279.596 287.05L263.264 278.504L268.933 267.621C265.838 265.278 263.343 262.232 261.653 258.733C259.962 255.234 259.125 251.382 259.21 247.495L259.509 233.314C259.651 226.796 262.369 220.602 267.065 216.091C271.76 211.581 278.05 209.125 284.551 209.262H285.04C291.541 209.405 297.72 212.13 302.218 216.838C306.716 221.546 309.167 227.851 309.03 234.37V234.615L315.062 234.743C316.749 234.772 318.355 235.473 319.528 236.69C320.7 237.906 321.342 239.54 321.314 241.232Z" fill="#C0512B"/>
<path d="M408.528 266.787L382.379 282.936L382.35 282.921L377.762 289.769L361.547 313.983L347.021 304.205L367.285 273.948L366.164 258.417L371.696 257.308L372.098 264.033L381.948 239.843L386.384 242.042L380.421 261.269L392.514 242.361L398.315 246.602L385.88 265L401.473 248.551L407.02 251.859L389.733 270.188L407.221 259.88L408.528 266.787Z" fill="#C0512B"/>
<path d="M366.213 258.285L371.55 258.093L371.932 263.738L382.609 240.393L385.851 242.813L380.543 261.117L393.023 242.592L398.354 246.509L385.709 265.122L402.124 249.145L405.757 252.488L389.738 270.061L407.049 261.078L408.513 266.713L381.919 282.185L377.782 288.748L364.211 278.317L368.265 273.595L366.213 258.285Z" stroke="#000022" stroke-linecap="round" stroke-linejoin="round"/>
<path d="M382.678 293.421L347.115 344.589C346.542 345.413 345.923 346.203 345.259 346.955L344.417 348.123C337.201 358.147 325.739 360.621 312.643 354.799L252.424 325.602L276.365 291.482L323.125 326.427L359.467 277.198L382.678 293.421Z" fill="#2081c3"/>
<path d="M360.451 280.177L324.119 330.045L284.791 303.415" stroke="#000022" stroke-miterlimit="10" stroke-linecap="round"/>
<path d="M379.28 291.575L339.81 350.062C339.81 350.062 328.775 362.947 312.486 354.897C296.198 346.847 258.035 326.918 258.035 326.918" stroke="#000022" stroke-miterlimit="10" stroke-linecap="round"/>
<path d="M80.2744 442.959L47.1155 488.184C44.9213 491.177 42.1607 493.707 38.9913 495.63C35.8218 497.553 32.3057 498.831 28.6436 499.392C24.9814 499.953 21.245 499.784 17.6477 498.897C14.0504 498.01 10.6626 496.421 7.67774 494.221L57.5452 426.206L80.2744 442.959Z" fill="#000022"/>
<path d="M197.302 444.976C197.307 449.033 195.873 452.96 193.258 456.055L143.874 514.655C141.319 517.688 137.796 519.741 133.903 520.464C130.01 521.187 125.987 520.536 122.518 518.621C121.586 518.155 120.699 517.603 119.87 516.972L58.7893 470.771C55.1601 468.026 52.7671 463.948 52.1368 459.435C51.5065 454.921 52.6905 450.34 55.4283 446.702C58.1661 443.063 62.2334 440.664 66.7356 440.032C71.2377 439.4 75.8058 440.587 79.435 443.332L128.08 480.147L167.061 433.893C169.325 431.197 172.362 429.265 175.759 428.358C179.155 427.451 182.748 427.614 186.05 428.824C189.351 430.034 192.202 432.233 194.215 435.122C196.228 438.012 197.305 441.452 197.302 444.976Z" fill="#C0512B" stroke="#000022" stroke-miterlimit="10"/>
<path d="M278.759 357.744C268.68 351.276 256.688 348.482 244.798 349.831C232.907 351.179 221.841 356.589 213.458 365.152L118.479 461.941L188.489 502.192L254.431 414.327L278.759 357.744Z" fill="#FCDBAA"/>
<path d="M198.962 381.193C197.904 382.239 121.632 455.805 121.632 455.805L192.132 499.001" stroke="#000022" stroke-miterlimit="10" stroke-linecap="round"/>
<path d="M374.062 614.244L417.304 578.594C423.083 573.829 430.513 571.562 437.959 572.29C445.406 573.018 452.259 576.682 457.01 582.476L391.968 636.1L374.051 614.254L374.062 614.244Z" fill="#000022"/>
<path d="M274.767 461.838L274.763 461.841C267.474 467.916 266.476 478.764 272.535 486.073L377.871 613.138C383.93 620.446 394.75 621.446 402.039 615.372L402.043 615.369C409.332 609.295 410.329 598.446 404.271 591.138L298.935 464.072C292.876 456.764 282.056 455.764 274.767 461.838Z" fill="#C0512B" stroke="#000022" stroke-miterlimit="10"/>
<path d="M200.891 365.206C193.209 374.411 188.923 385.986 188.751 397.987C188.578 409.987 192.532 421.682 199.946 431.104L265.325 514.959L327.991 469.309L253.81 396.592L200.891 365.206Z" fill="#FCDBAA"/>
<path d="M291.65 224.007L291.646 224.007C286.999 223.909 283.152 227.606 283.054 232.265L282.998 234.905C282.9 239.564 286.587 243.421 291.234 243.52L291.239 243.52C295.886 243.618 299.733 239.921 299.831 235.262L299.887 232.621C299.985 227.962 296.297 224.105 291.65 224.007Z" fill="#F8FAFC"/>
<path d="M300.192 234.106C300.252 231.293 298.735 228.979 296.805 228.938C294.875 228.897 293.262 231.145 293.203 233.958C293.143 236.772 294.66 239.085 296.59 239.126C298.52 239.167 300.133 236.92 300.192 234.106Z" fill="#010024"/>
<path d="M276.049 206.014L275.993 206.045V205.963L276.049 206.014Z" fill="#010024"/>
<path d="M276.049 206.014L275.993 206.045V205.963L276.049 206.014Z" fill="#010024"/>
<path d="M304.423 198.35C303.995 198.34 303.567 198.354 303.14 198.394C303.11 196.897 302.527 195.465 301.504 194.374C300.481 193.283 299.09 192.612 297.602 192.49C296.114 192.368 294.633 192.804 293.447 193.713C292.261 194.622 291.453 195.94 291.18 197.412C289.738 196.716 288.153 196.371 286.554 196.406C284.954 196.441 283.385 196.855 281.976 197.613C280.967 196.314 279.58 195.36 278.007 194.884C276.435 194.407 274.753 194.432 273.196 194.955C271.638 195.477 270.28 196.472 269.309 197.801C268.339 199.13 267.804 200.728 267.778 202.375C267.778 202.498 267.778 202.62 267.778 202.743C267.357 202.699 266.926 202.674 266.495 202.664C263.928 202.611 261.384 203.17 259.074 204.295C256.765 205.421 254.755 207.08 253.21 209.137C251.666 211.194 250.631 213.59 250.192 216.127C249.752 218.664 249.92 221.269 250.682 223.728C249.473 224.745 248.481 225.997 247.765 227.407C247.05 228.818 246.625 230.358 246.516 231.937C246.407 233.516 246.617 235.1 247.133 236.596C247.648 238.092 248.459 239.468 249.516 240.643C248.841 242.381 248.624 244.264 248.888 246.11C249.151 247.956 249.886 249.703 251.021 251.181C252.155 252.659 253.651 253.818 255.364 254.546C257.077 255.274 258.948 255.546 260.796 255.336C262.645 255.125 264.407 254.44 265.914 253.346C267.421 252.252 268.62 250.786 269.395 249.091C270.171 247.396 270.497 245.529 270.341 243.67C270.186 241.812 269.554 240.025 268.507 238.483C269.159 237.317 269.604 236.046 269.824 234.728C272.882 234.011 275.666 232.42 277.838 230.148C280.011 227.875 281.479 225.019 282.064 221.926C283.339 221.689 284.54 221.154 285.57 220.363C286.599 219.572 287.428 218.549 287.988 217.376C288.389 218.331 289.029 219.167 289.846 219.802C290.662 220.438 291.628 220.853 292.651 221.007C293.673 221.16 294.718 221.048 295.685 220.68C296.651 220.313 297.508 219.702 298.171 218.907C299.618 219.831 301.257 220.407 302.963 220.589C304.668 220.772 306.392 220.556 308 219.959C309.609 219.362 311.057 218.4 312.233 217.148C313.409 215.897 314.279 214.389 314.777 212.744C315.275 211.098 315.386 209.36 315.102 207.664C314.818 205.968 314.147 204.361 313.14 202.969C312.133 201.577 310.819 200.438 309.3 199.64C307.781 198.842 306.098 198.407 304.384 198.369L304.423 198.35ZM276.615 206.518V206.454L276.659 206.493L276.615 206.518Z" fill="#010024"/>
<path d="M276.049 206.014L275.993 206.045V205.963L276.049 206.014Z" fill="#010024"/>
<path d="M272.017 242.484C276.755 242.484 280.595 238.633 280.595 233.884C280.595 229.134 276.755 225.284 272.017 225.284C267.28 225.284 263.44 229.134 263.44 233.884C263.44 238.633 267.28 242.484 272.017 242.484Z" fill="#C0512B"/>
<path d="M301.397 251.815C301.346 254.221 300.343 256.509 298.61 258.174C296.876 259.839 294.554 260.746 292.154 260.695V260.695C289.754 260.645 287.472 259.64 285.81 257.903C284.148 256.166 283.243 253.839 283.292 251.432" stroke="#010024" stroke-miterlimit="10" stroke-linecap="round"/>
<path d="M283.66 424.208L177.552 374.125L260.321 270.331L289.975 287.786L283.66 424.208Z" fill="#2081c3"/>
<path d="M191.545 380.707C191.545 380.707 179.447 405.172 219.529 455.098C259.611 505.024 266.529 514.223 266.529 514.223" stroke="#000022" stroke-miterlimit="10" stroke-linecap="round"/>
<path d="M261.114 507.557C261.775 506.502 316.241 462.461 316.241 462.461" stroke="#000022" stroke-miterlimit="10" stroke-linecap="round"/>
<path d="M281.51 282.774L287.287 272.019C287.287 272.019 306.518 271.774 308.946 247.206H315.61C317.263 247.199 318.849 246.551 320.036 245.397C321.223 244.243 321.917 242.673 321.974 241.016V241.016C322.004 240.158 321.861 239.303 321.555 238.502C321.249 237.7 320.785 236.969 320.191 236.35C319.598 235.732 318.887 235.239 318.099 234.901C317.312 234.564 316.466 234.388 315.61 234.384H309.191C309.191 234.384 309.627 221.332 300.516 216.546" stroke="#000022" stroke-miterlimit="10" stroke-linecap="round"/>
<path d="M266.651 272.638L269.334 267.886C269.334 267.886 261.951 262.943 259.641 250.514" stroke="#010024" stroke-miterlimit="10" stroke-linecap="round"/>
<path d="M133.681 444.054L198.986 483.789" stroke="#000022" stroke-miterlimit="10" stroke-linecap="round"/>
<path d="M320.736 182.112L302.132 197.663L244.792 247.52C239.224 239.94 236.502 230.635 237.104 221.241C237.705 211.847 241.593 202.967 248.082 196.164C254.571 189.361 263.246 185.072 272.579 184.05C281.912 183.028 291.306 185.341 299.106 190.579L316.041 176.418L320.736 182.112Z" fill="#2081c3"/>
<path d="M245.83 245.836L320.501 182.156L315.845 176.462" stroke="#000022" stroke-miterlimit="10" stroke-linecap="round"/>
<path d="M362.042 164.033C367.393 161.088 370.404 151.987 371.006 136.962C371.608 121.936 369.748 102.591 365.777 82.4019C361.807 62.2126 356.177 43.6087 349.929 29.9429C342.772 14.299 335.648 7.05869 328.75 8.4233C321.852 9.78791 318.014 19.1978 317.323 36.4028C316.721 51.4184 318.577 70.7929 322.552 90.9627C326.527 111.132 332.148 129.741 338.4 143.417C344.764 157.313 351.085 164.578 357.258 165.074L410.985 441.094L415.788 440.151L362.042 164.033ZM357.214 157.038C355.379 156.194 351.129 152.419 345.518 140.143C339.521 127.027 334.091 109.022 330.234 89.441C326.376 69.8603 324.594 51.1337 325.152 36.7169C325.808 20.3367 329.357 16.3115 330.268 16.1299H330.375C331.506 16.1299 336.221 18.8248 342.811 33.2268C348.808 46.3428 354.238 64.3478 358.091 83.9285C361.944 103.509 363.76 122.226 363.178 136.648C362.634 150.166 360.123 155.271 358.771 156.739C358.593 156.965 358.353 157.136 358.081 157.23C357.78 157.251 357.479 157.185 357.214 157.038Z" fill="#FBD206"/>
<path d="M358.745 156.739C358.567 156.965 358.328 157.135 358.056 157.229C357.763 157.246 357.472 157.18 357.215 157.038L358.745 156.739Z" fill="#FBD206"/>
<path d="M388.132 347.191L408.18 350.317L404.832 356.493L374.389 352.384L374.379 352.355L366.502 354.74L338.659 363.188L333.592 346.395L368.382 335.842L377.327 323.109L382.306 325.764L378.36 331.237L401.277 318.764L403.319 323.28L386.56 334.374L407.862 327.418L409.674 334.389L388.431 340.731L410.888 337.903L413.091 343.98L388.132 347.191Z" fill="#C0512B"/>
<path d="M370.125 368.151L306.969 377.968C291.033 381.821 283.958 376.005 274.656 361.279L272.208 355.879L269.76 348.025L259.479 292.066L289.96 287.928L302.788 345.316L361.244 331.174L370.125 368.151Z" fill="#2081c3"/>
<path d="M283.704 424.119L188.573 377.639L263.322 271.322L291.522 288.65L301.906 349.08L360.637 335.768" stroke="#000022" stroke-miterlimit="10" stroke-linecap="round"/>
<path d="M264.463 318.823C264.463 318.823 267.4 376.986 298.244 375.99C329.088 374.993 368.357 360.032 368.357 360.032" stroke="#000022" stroke-miterlimit="10" stroke-linecap="round"/>
<path d="M377.444 323.035L381.699 326.28L378.424 330.889L401.439 319.599L402.413 323.526L386.747 334.325L408.107 327.909L409.757 334.33L388.215 340.706L411.015 338.762L411.715 343.656L388.215 347.088L407.289 351.123L404.861 356.414L374.507 351.505L367.163 353.96L363.247 337.27L369.366 336.19L377.444 323.035Z" stroke="#000022" stroke-linecap="round" stroke-linejoin="round"/>
<path d="M340.49 159.822C336.217 156.988 331.744 154.472 327.105 152.292C324.794 151.189 322.444 150.181 320.055 149.268C317.673 148.345 315.245 147.548 312.78 146.877C310.322 146.204 307.823 145.691 305.299 145.341C302.784 145.005 300.246 144.883 297.711 144.978C295.189 145.111 292.692 145.538 290.269 146.249C287.869 146.983 285.593 148.076 283.517 149.489C283.028 149.857 282.494 150.205 281.99 150.588C281.486 150.971 281.011 151.379 280.521 151.786C279.542 152.596 278.563 153.426 277.613 154.27C275.694 155.958 273.809 157.706 271.949 159.449C268.218 162.958 264.551 166.546 260.874 170.125C253.53 177.282 246.133 184.439 238.309 191.144C234.393 194.492 230.373 197.726 226.148 200.716C221.928 203.769 217.405 206.376 212.65 208.496C210.224 209.552 207.689 210.335 205.091 210.833C203.771 211.083 202.43 211.212 201.086 211.22C199.723 211.243 198.361 211.108 197.028 210.818C196.697 210.753 196.37 210.67 196.049 210.567C195.717 210.483 195.39 210.38 195.069 210.258C194.751 210.14 194.418 210.023 194.09 209.9L193.194 209.522C192.003 209.008 190.823 208.476 189.655 207.927C187.314 206.824 185.007 205.659 182.732 204.432C178.182 201.987 173.753 199.336 169.445 196.48C165.12 193.64 160.954 190.564 156.965 187.266C152.913 183.969 149.204 180.268 145.896 176.221C144.231 174.146 142.801 171.893 141.631 169.501C140.39 167.019 139.763 164.272 139.805 161.495C139.866 160.065 140.182 158.656 140.74 157.338C141.297 156.036 142.057 154.831 142.992 153.769C143.908 152.746 144.927 151.819 146.033 151.006C147.12 150.235 148.253 149.532 149.426 148.9C153.935 146.362 158.595 144.114 163.3 142.028C168.005 139.941 172.769 138.017 177.317 135.808C179.572 134.745 181.73 133.485 183.765 132.043C185.743 130.665 187.411 128.886 188.661 126.821C189.843 124.722 190.536 122.383 190.688 119.978C190.855 117.502 190.737 115.015 190.335 112.566L190.036 110.681L189.89 109.66L189.816 108.639C189.748 107.292 189.8 105.941 189.973 104.604C190.31 101.977 190.932 99.3941 191.828 96.9022C193.605 91.9942 195.914 87.2964 198.712 82.8928C201.478 78.5132 204.53 74.3219 207.847 70.3462C214.475 62.4188 221.869 55.1692 229.923 48.7039C237.936 42.2161 246.54 36.4984 255.621 31.6266C260.165 29.2078 264.83 27.0254 269.599 25.0882C274.36 23.1431 279.228 21.4714 284.178 20.0814C289.121 18.6789 294.145 17.5871 299.223 16.8122C304.299 16.057 309.417 15.629 314.547 15.531C309.429 15.7509 304.33 16.3019 299.282 17.1804C294.239 18.0469 289.254 19.224 284.355 20.7048C279.459 22.1682 274.65 23.9087 269.951 25.9178C265.253 27.9278 260.661 30.179 256.194 32.6623C247.245 37.5994 238.776 43.3644 230.897 49.882C223.004 56.3623 215.77 63.6101 209.302 71.5194C206.084 75.4587 203.13 79.6074 200.46 83.9383C197.779 88.2314 195.571 92.8036 193.875 97.5746C193.046 99.9258 192.473 102.36 192.166 104.835C192.016 106.047 191.975 107.271 192.044 108.492L192.112 109.395L192.244 110.278L192.558 112.198C193.004 114.821 193.143 117.488 192.974 120.145L192.886 121.151L192.724 122.157C192.661 122.491 192.626 122.83 192.533 123.139L192.274 124.121C192.23 124.283 192.191 124.45 192.142 124.612L191.965 125.103L191.613 126.084C191.476 126.398 191.319 126.708 191.172 127.022C191.029 127.336 190.865 127.641 190.683 127.935L190.144 128.823C189.963 129.113 189.743 129.383 189.542 129.663C189.134 130.213 188.694 130.739 188.225 131.238C188 131.498 187.735 131.729 187.5 131.955C187.265 132.181 187.011 132.446 186.751 132.642C186.227 133.069 185.723 133.521 185.175 133.899C183.023 135.441 180.741 136.791 178.355 137.934C173.684 140.216 168.931 142.126 164.27 144.222C159.609 146.318 155.031 148.527 150.61 151.03C149.523 151.618 148.473 152.274 147.467 152.994C146.508 153.703 145.623 154.509 144.828 155.399C143.276 157.118 142.365 159.322 142.248 161.638C142.217 164.022 142.758 166.379 143.825 168.51C144.913 170.734 146.243 172.832 147.79 174.764C150.981 178.684 154.56 182.269 158.473 185.464C162.385 188.712 166.471 191.744 170.713 194.546C174.952 197.363 179.329 199.989 183.794 202.434C186.032 203.646 188.294 204.814 190.59 205.909C191.735 206.459 192.886 206.984 194.051 207.49L194.922 207.868L195.76 208.187C196.034 208.3 196.323 208.368 196.607 208.457C196.892 208.545 197.181 208.619 197.473 208.678C198.646 208.94 199.845 209.065 201.047 209.051C202.266 209.049 203.481 208.938 204.68 208.717C207.123 208.261 209.509 207.537 211.794 206.557C216.421 204.516 220.83 202.009 224.954 199.076C229.135 196.185 233.154 193.024 237.071 189.75C244.904 183.177 252.346 176.123 259.778 169.05C263.494 165.516 267.205 161.962 270.984 158.477C272.874 156.739 274.788 155.04 276.737 153.332C277.716 152.493 278.695 151.663 279.709 150.853C280.198 150.446 280.717 150.053 281.226 149.656C281.735 149.258 282.308 148.91 282.847 148.532C285.042 147.095 287.44 145.996 289.96 145.272C292.474 144.57 295.06 144.163 297.666 144.06C300.256 144.002 302.845 144.166 305.407 144.551C307.954 144.948 310.473 145.512 312.946 146.239C315.416 146.961 317.848 147.808 320.231 148.777C322.621 149.733 324.964 150.788 327.262 151.943C331.856 154.244 336.277 156.877 340.49 159.822Z" fill="#000022"/>
<path d="M184.313 172.579C185.64 172.496 186.957 172.339 188.269 172.152C189.581 171.966 190.893 171.769 192.186 171.519C194.786 171.028 197.366 170.454 199.912 169.742C202.457 169.03 204.964 168.23 207.427 167.288C209.889 166.345 212.323 165.359 214.677 164.19C219.4 161.914 223.866 159.138 227.999 155.909C232.133 152.707 235.872 149.022 239.137 144.934C242.435 140.814 245.514 136.523 248.361 132.078C249.805 129.859 251.186 127.606 252.542 125.328L256.552 118.456C257.898 116.159 259.22 113.832 260.708 111.584C261.09 111.024 261.452 110.46 261.854 109.915L262.446 109.09L263.068 108.285C263.469 107.745 263.934 107.24 264.365 106.72L265.065 105.973C265.295 105.719 265.539 105.479 265.795 105.252C267.766 103.336 270.165 101.92 272.791 101.119C273.435 100.933 274.089 100.782 274.749 100.667C275.082 100.613 275.415 100.54 275.728 100.505L276.708 100.412C277.041 100.374 277.376 100.356 277.711 100.358H278.69C279.356 100.358 280.022 100.412 280.683 100.432C278.042 100.459 275.423 100.914 272.928 101.781C271.72 102.247 270.57 102.852 269.501 103.583C268.43 104.316 267.445 105.167 266.563 106.121C264.811 108.056 263.278 110.18 261.991 112.453C260.649 114.716 259.391 117.052 258.143 119.399C255.665 124.111 253.056 128.789 250.241 133.349C248.811 135.617 247.338 137.86 245.786 140.045C245.022 141.149 244.214 142.219 243.426 143.309L242.212 144.909C241.805 145.444 241.404 145.979 240.963 146.499C237.557 150.722 233.651 154.513 229.331 157.789C225.016 161.04 220.342 163.783 215.402 165.962C210.488 168.132 205.367 169.797 200.117 170.93C197.498 171.48 194.859 171.912 192.206 172.216C189.586 172.514 186.949 172.636 184.313 172.579Z" fill="#000022"/>
<path d="M191.657 186.814C196.762 185.918 201.821 184.854 206.834 183.624C211.853 182.416 216.817 180.988 221.683 179.334C224.107 178.484 226.506 177.566 228.861 176.575C231.207 175.577 233.495 174.448 235.715 173.193C236.258 172.869 236.816 172.564 237.345 172.211L238.941 171.19L240.469 170.091C240.958 169.717 241.448 169.305 241.937 168.917C242.877 168.116 243.758 167.246 244.571 166.316L244.88 165.972L245.154 165.609L245.697 164.878L245.972 164.509L246.241 164.107L246.775 163.302C249.673 159.007 252.517 154.663 255.455 150.372C258.392 146.082 261.438 141.861 264.654 137.757C267.84 133.614 271.322 129.707 275.072 126.07C276.966 124.261 278.99 122.596 281.129 121.087C283.264 119.578 285.617 118.402 288.105 117.602L287.219 118C286.921 118.127 286.631 118.27 286.348 118.427L285.496 118.888L284.673 119.379C283.584 120.061 282.536 120.807 281.535 121.612C279.546 123.245 277.669 125.011 275.919 126.899C274.157 128.774 272.492 130.733 270.872 132.745C269.251 134.758 267.694 136.805 266.177 138.896C263.158 143.081 260.22 147.336 257.364 151.658L248.792 164.652L248.248 165.462L247.974 165.864L247.661 166.276L247.039 167.101L246.726 167.513L246.378 167.891C245.477 168.909 244.504 169.858 243.465 170.734C241.422 172.461 239.205 173.972 236.851 175.24C232.198 177.683 227.314 179.657 222.271 181.13C217.285 182.634 212.218 183.852 207.094 184.777C201.988 185.73 196.835 186.41 191.657 186.814Z" fill="#000022"/>
<path d="M232.293 127.419C234.421 129.198 236.158 131.399 237.394 133.884C238.647 136.375 239.584 139.014 240.185 141.738C240.811 144.443 241.206 147.197 241.365 149.97C241.522 152.735 241.501 155.508 241.301 158.27C240.927 163.794 239.853 169.247 238.104 174.498C237.239 177.136 236.105 179.677 234.721 182.082C234.018 183.283 233.198 184.411 232.273 185.45C231.366 186.513 230.198 187.322 228.885 187.796C229.48 187.476 230.019 187.062 230.481 186.569C230.945 186.09 231.367 185.572 231.744 185.023C232.486 183.913 233.128 182.741 233.664 181.518C234.738 179.068 235.614 176.535 236.283 173.944C237.624 168.75 238.49 163.445 238.868 158.094C239.296 152.76 239.121 147.395 238.344 142.101C237.939 139.465 237.263 136.877 236.327 134.38C235.389 131.845 234.025 129.491 232.293 127.419Z" fill="#000022"/>
<path d="M209.282 138.709C210.002 141.021 210.82 143.289 211.583 145.581C212.347 147.874 213.052 150.191 213.708 152.532C215.047 157.222 216.029 162.007 216.646 166.846C216.954 169.288 217.118 171.747 217.135 174.209C217.162 176.674 216.978 179.138 216.587 181.572C216.213 184.026 215.516 186.419 214.516 188.689C213.522 190.951 212.076 192.985 210.266 194.663C213.111 190.697 214.281 186.004 214.673 181.326C214.994 176.596 214.838 171.845 214.207 167.145C213.63 162.413 212.773 157.701 211.848 152.984L210.418 145.891C209.916 143.518 209.537 141.121 209.282 138.709Z" fill="#000022"/>
</svg>
