<svg width="44" height="50" viewBox="0 0 44 50" fill="none" xmlns="http://www.w3.org/2000/svg">
<path d="M43.0933 23.409C43.1482 27.4293 42.1919 31.3989 40.3123 34.953C39.4714 36.5367 38.4437 38.0139 37.2513 39.353C37.1058 39.5154 36.9226 39.6394 36.7178 39.7143C36.5131 39.7891 36.2931 39.8124 36.0772 39.7822C35.8613 39.752 35.6562 39.6691 35.4799 39.5409C35.3036 39.4127 35.1616 39.2431 35.0663 39.047L17.0893 1.96704C17.0132 1.80974 16.9689 1.63898 16.9589 1.46455C16.9489 1.29012 16.9734 1.11542 17.031 0.950465C17.0886 0.785508 17.1781 0.633528 17.2945 0.503215C17.4109 0.372902 17.5518 0.266822 17.7093 0.191035C17.903 0.0976099 18.1163 0.0519904 18.3313 0.0580246C18.8493 0.0780246 19.3543 0.104037 19.8493 0.133037C21.9767 0.233819 24.0912 0.521596 26.1683 0.993037C28.5687 1.54031 30.8699 2.4558 32.9903 3.70703C36.1251 5.64751 38.69 8.38361 40.4243 11.637C42.2811 15.2773 43.1986 19.3239 43.0933 23.409Z" fill="#2081c3"/>
<path d="M33.3593 42.787C33.4947 43.0652 33.5326 43.3808 33.467 43.6832C33.4013 43.9855 33.2359 44.257 32.9973 44.454C31.6163 45.4114 30.1645 46.2622 28.6543 46.999C27.1889 47.708 25.6795 48.3219 24.1353 48.837C23.8176 48.9422 23.4725 48.9283 23.1643 48.7978C22.8561 48.6674 22.6059 48.4293 22.4603 48.128L0.141275 1.98701C0.0378394 1.77644 -0.0101694 1.54297 0.00179454 1.30868C0.0137585 1.07438 0.0853035 0.847012 0.20965 0.648078C0.333996 0.449144 0.507027 0.285224 0.712396 0.171821C0.917765 0.058417 1.14868 -0.000720257 1.38328 6.62063e-06H11.7533C12.0126 -6.32613e-05 12.2667 0.0729853 12.4864 0.210776C12.7061 0.348567 12.8824 0.545523 12.9953 0.779014L33.3593 42.787Z" fill="#2081c3"/>
<path d="M8.12925 30.946L0.147257 47.453C0.0438209 47.6636 -0.00418794 47.8971 0.00777599 48.1314C0.0197399 48.3657 0.0912849 48.593 0.215631 48.792C0.339977 48.9909 0.513009 49.1548 0.718378 49.2682C0.923747 49.3816 1.15466 49.4408 1.38926 49.44H17.3552C17.5886 49.4402 17.8182 49.3811 18.0224 49.2683C18.2267 49.1555 18.399 48.9927 18.5231 48.7951C18.6472 48.5975 18.7192 48.3716 18.7321 48.1386C18.7451 47.9057 18.6987 47.6732 18.5973 47.463L10.6073 30.9471C10.4939 30.7143 10.3174 30.5181 10.0978 30.3809C9.87832 30.2437 9.62465 30.1709 9.36576 30.1709C9.10688 30.1709 8.85319 30.2437 8.63368 30.3809C8.41416 30.5181 8.23765 30.7143 8.12426 30.9471L8.12925 30.946Z" fill="#2081c3"/>
</svg>
