<svg width="387" height="645" viewBox="0 0 387 645" fill="none" xmlns="http://www.w3.org/2000/svg">
<path d="M328.294 102.906L308.773 134.158H308.738L307.446 143.95L302.889 178.556L282.077 175.806L287.779 132.566L278.324 116.511L283.68 112.376L287.679 119.366L285.412 88.1852L291.349 88.1793L295.155 111.97L298.103 85.2539L306.595 86.7107L303.006 113.063L311.028 87.1161L318.739 87.7035L309.907 116.576L323.22 96.1978L328.294 102.906Z" fill="#C0512B"/>
<path d="M278.301 116.347L283.938 113.298L287.344 119.149L286.417 88.4261L291.185 89.2896L295.208 111.747L298.772 85.2305L306.583 86.5933L302.889 113.286L312.038 87.404L317.717 89.0488L309.842 116.435L323.672 97.5724L328.241 102.842L307.881 133.6L306.924 142.84L286.798 138.886L288.642 131.667L278.301 116.347Z" stroke="#FFCFBE" stroke-linecap="round" stroke-linejoin="round"/>
<path d="M79.666 596.886L146.799 595.257C155.77 595.039 164.461 598.395 170.959 604.587C177.457 610.779 181.229 619.299 181.447 628.274L80.4693 630.725L79.6484 596.887L79.666 596.886Z" fill="#000022"/>
<path d="M99.6142 524.655L99.6084 524.655C88.2569 524.931 79.278 534.359 79.5534 545.714L80.8668 599.86C81.1423 611.214 90.5678 620.196 101.919 619.921L101.925 619.92C113.277 619.645 122.256 610.217 121.98 598.862L120.667 544.716C120.391 533.361 110.966 524.38 99.6142 524.655Z" fill="#FFCFBE" stroke="#000022" stroke-miterlimit="10"/>
<path d="M228.826 600.409L295.959 598.779C304.931 598.562 313.621 601.918 320.119 608.11C326.617 614.301 330.39 622.822 330.607 631.796V631.796L229.629 634.247L228.809 600.409L228.826 600.409Z" fill="#000022"/>
<path d="M247.595 528.184L247.589 528.184C236.237 528.459 227.258 537.888 227.534 549.243L228.847 603.388C229.123 614.743 238.548 623.724 249.9 623.449L249.906 623.449C261.257 623.173 270.236 613.745 269.961 602.39L268.647 548.245C268.372 536.89 258.946 527.908 247.595 528.184Z" fill="#FFCFBE" stroke="#000022" stroke-miterlimit="10"/>
<path d="M191.573 242.292C177.265 241.097 162.982 244.864 151.123 252.961C139.264 261.058 130.553 272.991 126.453 286.755L45.5352 558.401L153.196 565.862L197.405 315.833L191.573 242.292Z" fill="#FCDBAA"/>
<path d="M201.21 237.616C187.658 242.383 176.161 251.672 168.651 263.921C161.141 276.171 158.077 290.633 159.973 304.877L197.246 585.863L298.536 548.608L236.604 302.339L201.21 237.616Z" fill="#FCDBAA"/>
<path d="M263.191 110.026C263.178 112.043 262.368 113.973 260.938 115.395C259.508 116.817 257.573 117.615 255.556 117.615H255.521L248.286 117.58V119.019C248.251 126.097 245.668 132.926 241.01 138.254C236.352 143.582 229.931 147.054 222.923 148.032L214.079 165.655L194.323 155.769L200.906 142.64C197.149 139.896 194.097 136.299 192.002 132.144C189.907 127.989 188.829 123.396 188.856 118.743L188.932 101.772C188.949 97.9068 189.727 94.0826 191.222 90.518C192.716 86.9535 194.898 83.7183 197.643 80.9974C200.388 78.2765 203.641 76.123 207.218 74.66C210.795 73.1971 214.625 72.4532 218.489 72.471H219.076C222.94 72.4879 226.763 73.2662 230.327 74.7612C233.89 76.2563 237.124 78.4388 239.844 81.1843C242.565 83.9298 244.717 87.1844 246.18 90.7623C247.642 94.3401 248.386 98.1711 248.368 102.036V102.33L255.603 102.365C257.624 102.378 259.557 103.191 260.979 104.627C262.402 106.063 263.197 108.004 263.191 110.026Z" fill="#FFCFBE"/>
<path d="M227.284 89.9736L227.278 89.9736C221.703 89.9482 217.163 94.4487 217.138 100.026L217.123 103.186C217.098 108.763 221.597 113.304 227.172 113.33L227.178 113.33C232.753 113.355 237.294 108.854 237.319 103.278L237.333 100.117C237.359 94.5404 232.859 89.9989 227.284 89.9736Z" fill="#F8FAFC"/>
<path d="M237.687 101.898C237.702 98.5301 235.837 95.7916 233.522 95.7811C231.206 95.7706 229.316 98.492 229.301 101.86C229.286 105.227 231.151 107.966 233.466 107.976C235.782 107.987 237.672 105.265 237.687 101.898Z" fill="#010024"/>
<path d="M239.506 123.067C239.492 125.947 238.335 128.704 236.291 130.732C234.246 132.759 231.48 133.892 228.601 133.881V133.881C227.174 133.875 225.763 133.588 224.447 133.036C223.132 132.484 221.938 131.678 220.934 130.665C219.93 129.651 219.136 128.45 218.596 127.129C218.056 125.808 217.782 124.394 217.789 122.967" stroke="#010024" stroke-miterlimit="10" stroke-linecap="round"/>
<path d="M218.727 157.79L222.972 147.54C222.972 147.54 246.057 146.858 248.459 117.422L256.446 117.293C258.435 117.26 260.333 116.455 261.741 115.049C263.149 113.643 263.956 111.746 263.992 109.756V109.756C264.01 108.726 263.82 107.704 263.434 106.749C263.048 105.795 262.475 104.927 261.747 104.199C261.02 103.47 260.153 102.896 259.199 102.509C258.245 102.123 257.223 101.932 256.193 101.949L248.512 102.078C248.512 102.078 248.776 86.4467 237.754 80.9014" stroke="#000022" stroke-miterlimit="10" stroke-linecap="round"/>
<path d="M198.25 148.691L201.369 142.946C201.369 142.946 192.419 137.183 189.406 122.356" stroke="#010024" stroke-miterlimit="10" stroke-linecap="round"/>
<path d="M159.117 342.537L200.213 582.797L301.221 546.969" stroke="#000022" stroke-miterlimit="10" stroke-linecap="round"/>
<path d="M171.573 422.862C171.737 426.833 148.241 557.831 148.241 557.831L51.0039 547.65" stroke="#000022" stroke-miterlimit="10" stroke-linecap="round"/>
<path d="M199.332 562.531L289.775 530.815" stroke="#000022" stroke-miterlimit="10" stroke-linecap="round"/>
<path d="M229.292 339.312C229.292 339.312 226.356 375.146 203.453 382.782" stroke="#000022" stroke-miterlimit="10" stroke-linecap="round"/>
<path d="M346.462 79.374L346.456 128.718H264.076V111.095H244.274V115.795H238.988L238.994 88.1855H244.279V95.2347H264.076V79.374H346.462Z" fill="#2081C3"/>
<path d="M256.436 57.3158C256.413 61.7141 255.322 66.0408 253.259 69.9247C251.196 73.8086 248.221 77.1336 244.59 79.6142C240.959 82.0949 236.78 83.657 232.413 84.1667C228.046 84.6763 223.62 84.1182 219.516 82.5402C214.28 90.1165 206.286 95.3415 197.247 97.0967C198.695 99.1134 199.534 101.504 199.663 103.984C199.792 106.463 199.206 108.928 197.975 111.084C196.743 113.24 194.919 114.997 192.718 116.146C190.518 117.294 188.033 117.786 185.561 117.563C183.089 117.34 180.733 116.411 178.773 114.887C176.813 113.362 175.333 111.307 174.508 108.965C173.682 106.624 173.547 104.094 174.118 101.677C174.688 99.2608 175.941 97.0592 177.727 95.3344C172.989 93.4635 168.713 90.5873 165.194 86.9041C161.674 83.2208 158.995 78.818 157.34 73.9991C155.686 69.1802 155.095 64.0598 155.61 58.9907C156.124 53.9215 157.731 49.0243 160.32 44.6363C162.909 40.2483 166.418 36.474 170.606 33.5734C174.794 30.6728 179.56 28.7149 184.577 27.8347C189.595 26.9544 194.743 27.1727 199.667 28.4745C204.592 29.7763 209.176 32.1306 213.103 35.3753C217.152 32.3705 221.957 30.5527 226.981 30.1252C232.004 29.6978 237.047 30.6777 241.545 32.9552C246.044 35.2327 249.819 38.7179 252.449 43.0204C255.079 47.3229 256.46 52.2728 256.436 57.3158V57.3158Z" fill="#010024"/>
<path d="M319.079 145.683L304.345 223.166C303.198 229.211 300.506 234.855 296.529 239.549C292.552 244.242 287.427 247.825 281.653 249.947C271.165 255.598 259.12 253.742 247.622 244.36L187.176 191.609L225.635 159.782L265.568 209.361L279.151 138.047L319.079 145.683Z" fill="#FF874F"/>
<path d="M229.3 160.498L265.504 207.904L279.216 138.182L316.16 144.256C323.384 145.789 302.201 225.263 296.376 233.628C293.609 237.612 289.977 240.92 285.752 243.303C257.529 259.063 231.942 226.326 217.555 206.294" stroke="#000022" stroke-miterlimit="10" stroke-linecap="round"/>
<path d="M327.118 99.6103L307.598 130.862H307.562L306.27 140.654L301.713 175.26L280.901 172.516L286.603 129.276L277.148 113.221L282.504 109.08L286.503 116.07L284.237 84.8893H290.174L293.979 108.68L296.927 81.958L305.419 83.4148L301.831 109.767L309.853 83.8202L317.563 84.4135L308.731 113.28L322.044 92.9019L327.118 99.6103Z" fill="#FFCFBE"/>
<path d="M277.125 113.051L282.763 110.002L286.169 115.853L285.241 85.1302L290.009 85.9996L294.032 108.451L297.597 81.9404L305.407 83.2974L301.713 109.996L310.863 84.1139L316.541 85.7587L308.666 113.139L322.496 94.2824L327.065 99.5458L306.705 130.31L305.748 139.544L285.623 135.591L287.467 128.371L277.125 113.051Z" stroke="#000022" stroke-linecap="round" stroke-linejoin="round"/>
<path d="M251.24 319.745L115.414 283.137L191.305 143.393L229.993 157.702L251.24 319.745Z" fill="#FF874F"/>
<path d="M317.903 142.376L303.169 219.852C302.023 225.893 299.333 231.533 295.361 236.225C291.388 240.916 286.269 244.498 280.501 246.621C270.007 252.29 257.956 250.44 246.44 241.053L186 188.295L224.459 156.48L264.392 206.059L277.946 134.774L317.903 142.376Z" fill="#FF874F"/>
<path d="M251.297 320.22L129.195 285.538L195.079 144.508L226.867 156.715L228.124 157.202L264.328 204.608L278.041 134.88L314.985 140.983C322.208 142.516 301.026 221.996 295.2 230.355C292.435 234.341 288.803 237.649 284.577 240.03C256.353 255.797 230.767 223.053 216.379 203.022" stroke="#000022" stroke-miterlimit="10" stroke-linecap="round"/>
</svg>
