<svg width="413" height="427" viewBox="0 0 413 427" fill="none" xmlns="http://www.w3.org/2000/svg">
<path d="M159.708 99.361C159.668 101.052 158.97 102.66 157.762 103.842C156.555 105.023 154.935 105.684 153.247 105.684H153.103L146.975 105.554V106.775C146.851 112.779 144.571 118.537 140.555 122.992C136.538 127.447 131.054 130.301 125.108 131.03L117.38 145.868L100.805 137.188L106.56 126.142C103.419 123.764 100.885 120.672 99.1694 117.12C97.4534 113.569 96.6035 109.659 96.6898 105.714L96.993 91.3193C97.1364 84.7027 99.8949 78.4141 104.662 73.8359C109.429 69.2578 115.814 66.7648 122.414 66.905H122.911C129.511 67.0488 135.784 69.8143 140.35 74.5933C144.917 79.3724 147.404 85.7739 147.264 92.3905V92.6396L153.387 92.7692C155.096 92.8058 156.721 93.5202 157.906 94.7557C159.091 95.9913 159.739 97.6473 159.708 99.361Z" fill="#FFCFBE"/>
<path d="M305.65 7.51367C294.37 12.9266 283.844 19.7942 274.339 27.9419C271.929 29.9349 269.653 32.0724 267.382 34.1949L264.032 37.4684C262.919 38.5646 261.865 39.7155 260.777 40.8366C256.493 45.3906 252.397 50.114 248.556 55.0467C244.714 59.9794 241.101 65.0565 237.622 70.2632C234.143 75.4699 230.947 80.8261 227.856 86.262C221.728 97.1594 216.208 108.389 211.321 119.899C201.481 142.898 193.827 166.784 187.699 191.029C184.647 203.153 181.984 215.367 179.707 227.67C178.564 233.819 177.526 239.982 176.591 246.16C175.667 252.334 174.817 258.547 174.186 264.725C174.169 264.889 174.12 265.047 174.043 265.192C173.965 265.337 173.859 265.465 173.732 265.569C173.605 265.673 173.459 265.75 173.302 265.797C173.145 265.845 172.98 265.86 172.817 265.844C172.653 265.827 172.495 265.778 172.351 265.7C172.206 265.622 172.079 265.516 171.975 265.389C171.871 265.262 171.794 265.115 171.747 264.957C171.7 264.8 171.684 264.635 171.701 264.471C172.392 258.193 173.291 252.015 174.275 245.792C175.259 239.568 176.358 233.415 177.555 227.257C179.957 214.93 182.731 202.698 185.875 190.561C192.207 166.291 200.099 142.395 210.133 119.396C215.135 107.891 220.766 96.6715 227.001 85.7887C230.145 80.3677 233.459 75.0531 236.941 69.8447C240.423 64.6363 244.122 59.5791 248.039 54.673C251.93 49.7603 256.08 45.0568 260.409 40.5327C261.507 39.4166 262.576 38.2706 263.704 37.1795L267.088 33.9259C269.404 31.8183 271.705 29.6958 274.131 27.7177C283.716 19.6375 294.312 12.8455 305.65 7.51367Z" fill="#000022"/>
<path d="M100.814 330.557L131.327 378.593C135.407 385.016 136.774 392.8 135.129 400.233C133.484 407.667 128.961 414.14 122.555 418.23L76.6376 345.945L100.792 330.523L100.814 330.557Z" fill="#000022"/>
<path d="M205.365 313.963C214.973 307.828 217.802 295.047 211.683 285.415C205.564 275.782 192.815 272.946 183.207 279.081L101.462 331.27C91.8539 337.404 89.0252 350.185 95.1438 359.818C101.263 369.45 114.012 372.286 123.62 366.152L205.365 313.963Z" fill="#FFCFBE" stroke="#000022" stroke-miterlimit="10"/>
<path d="M173.738 392.82H230.569C238.162 392.82 245.445 395.844 250.815 401.225C256.185 406.607 259.203 413.907 259.206 421.519H173.723V392.82H173.738Z" fill="#000022"/>
<path d="M215.938 295.497V392.655C215.938 398.139 213.765 403.399 209.897 407.276C206.029 411.154 200.783 413.333 195.313 413.333C189.843 413.333 184.596 411.154 180.729 407.276C176.861 403.399 174.688 398.139 174.688 392.655V313.683H63.6149C58.5402 313.683 53.6733 311.662 50.085 308.064C46.4966 304.467 44.4807 299.588 44.4807 294.5C44.4807 289.413 46.4966 284.533 50.085 280.936C53.6733 277.339 58.5402 275.318 63.6149 275.318C63.6149 275.318 193.767 274.819 195.318 274.819C200.787 274.822 206.032 277.001 209.899 280.878C213.766 284.756 215.94 290.014 215.943 295.497H215.938Z" fill="#FFCFBE" stroke="#000022" stroke-miterlimit="10"/>
<path d="M227.125 378.206C227.125 378.206 170.468 386.677 168.977 386.677C167.983 386.677 168.093 352.576 168.266 327.853L62.9539 317.086C53.6869 316.701 44.9227 312.757 38.4767 306.072C32.0308 299.386 28.3972 290.47 28.3285 281.172L27.8315 243.176L123.751 265.099L219.173 271.078L218.721 271.646L227.125 378.206Z" fill="#FCDBAA"/>
<path d="M99.3933 325.885L135.177 370.23L176.427 341.336L174.439 311.441L120.267 307.45L99.3933 325.885Z" fill="#FCDBAA"/>
<path d="M129.722 81.7417L129.717 81.7416C124.999 81.647 121.097 85.405 121.003 90.1352L120.949 92.8158C120.855 97.5461 124.603 101.457 129.322 101.552L129.327 101.552C134.045 101.647 137.946 97.8888 138.041 93.1585L138.094 90.4779C138.189 85.7477 134.44 81.8363 129.722 81.7417Z" fill="#F8FAFC"/>
<path d="M137.14 94.4714C137.197 91.6151 135.655 89.2678 133.695 89.2285C131.735 89.1892 130.1 91.4728 130.043 94.3291C129.986 97.1855 131.529 99.5328 133.488 99.5721C135.448 99.6114 137.083 97.3278 137.14 94.4714Z" fill="#010024"/>
<path d="M148.004 70.3727C147.962 72.3804 147.388 74.3408 146.34 76.0523C145.293 77.7639 143.81 79.165 142.043 80.1116C140.277 81.0583 138.29 81.5163 136.289 81.4387C134.287 81.3611 132.342 80.7506 130.654 79.6701C129.981 80.477 129.111 81.0968 128.13 81.4699C127.149 81.8431 126.088 81.9571 125.05 81.801C124.012 81.6449 123.032 81.224 122.203 80.5786C121.374 79.9332 120.724 79.0851 120.317 78.1155C119.747 79.3049 118.907 80.3432 117.863 81.1464C116.819 81.9497 115.601 82.4954 114.308 82.7393C113.713 85.8778 112.223 88.7757 110.017 91.0814C107.812 93.3872 104.986 95.0016 101.883 95.7287C101.662 97.0635 101.211 98.3498 100.551 99.5303C101.518 100.961 102.135 102.601 102.351 104.315C102.567 106.03 102.377 107.772 101.796 109.399C101.215 111.026 100.26 112.493 99.0071 113.681C97.7545 114.868 96.2402 115.743 94.5872 116.234C92.9342 116.724 91.189 116.817 89.4934 116.505C87.7978 116.193 86.1995 115.484 84.8284 114.436C83.4572 113.389 82.3518 112.032 81.602 110.475C80.8521 108.919 80.4789 107.207 80.5126 105.479C80.5404 104.196 80.7893 102.926 81.2482 101.728C80.1759 100.535 79.3543 99.1375 78.8323 97.6194C78.3103 96.1013 78.0987 94.4933 78.21 92.8914C78.3213 91.2895 78.7533 89.7265 79.4802 88.2956C80.2071 86.8647 81.2141 85.5952 82.441 84.5629C81.6678 82.067 81.4973 79.4226 81.9437 76.8477C82.39 74.2729 83.4404 71.8412 85.0081 69.7532C86.5759 67.6651 88.6162 65.9805 90.9609 64.8382C93.3056 63.6959 95.8875 63.1286 98.4938 63.183C98.9311 63.183 99.3685 63.2179 99.7959 63.2627C99.7959 63.1381 99.7959 63.0136 99.7959 62.884C99.8296 61.2189 100.376 59.6049 101.36 58.2631C102.344 56.9214 103.718 55.9174 105.293 55.3888C106.869 54.8601 108.569 54.8327 110.16 55.3101C111.752 55.7876 113.157 56.7467 114.184 58.056C115.615 57.286 117.207 56.8661 118.831 56.8306C120.455 56.7951 122.064 57.145 123.527 57.8517C123.804 56.3576 124.624 55.0196 125.829 54.0966C127.033 53.1737 128.536 52.7314 130.047 52.8554C131.558 52.9794 132.969 53.6609 134.007 54.7679C135.046 55.8749 135.638 57.3288 135.669 58.8482C137.253 58.7014 138.85 58.8914 140.356 59.4057C141.862 59.92 143.242 60.7471 144.407 61.833C145.573 62.9188 146.496 64.2389 147.118 65.707C147.739 67.1752 148.045 68.7582 148.014 70.3528L148.004 70.3727Z" fill="#010024"/>
<path d="M108.434 101.549C113.243 101.549 117.141 97.6403 117.141 92.8192C117.141 87.9981 113.243 84.0898 108.434 84.0898C103.625 84.0898 99.7263 87.9981 99.7263 92.8192C99.7263 97.6403 103.625 101.549 108.434 101.549Z" fill="#FFCFBE"/>
<path d="M121.11 118.651C121.172 116.216 122.193 113.905 123.951 112.224C125.709 110.542 128.06 109.628 130.489 109.682C132.925 109.733 135.242 110.752 136.928 112.515C138.615 114.279 139.535 116.641 139.484 119.084" stroke="#010024" stroke-miterlimit="10" stroke-linecap="round"/>
<path d="M120.023 140.288L125.157 130.612C125.157 130.612 144.674 130.362 147.139 105.425H153.903C155.585 105.425 157.201 104.771 158.411 103.601C159.621 102.431 160.332 100.837 160.394 99.1521V99.1521C160.423 98.2793 160.277 97.4095 159.964 96.5945C159.651 95.7796 159.178 95.0361 158.572 94.4085C157.966 93.7808 157.241 93.2818 156.439 92.9412C155.637 92.6005 154.774 92.4252 153.903 92.4257H147.403C147.403 92.4257 147.845 79.1773 138.591 74.3193" stroke="#000022" stroke-miterlimit="10" stroke-linecap="round"/>
<path d="M103.628 132.814L106.943 126.411C106.943 126.411 99.4481 121.399 97.1023 108.783" stroke="#010024" stroke-miterlimit="10" stroke-linecap="round"/>
<path d="M31.062 253.39L31.6882 264.735C31.6876 271.587 33.0333 278.373 35.6485 284.703C38.2637 291.034 42.0972 296.787 46.9301 301.633C51.763 306.478 57.5006 310.322 63.8153 312.944C70.13 315.567 76.8981 316.916 83.7332 316.916H172.456C172.456 316.916 172.953 381.191 172.456 381.689C171.959 382.187 220.167 371.724 220.167 371.724" stroke="#000022" stroke-miterlimit="10" stroke-linecap="round"/>
<path d="M69.3253 274.814C69.3253 274.814 72.3073 280.793 63.8584 287.271" stroke="#000022" stroke-miterlimit="10" stroke-linecap="round"/>
<path d="M175.701 364.405L220.908 357.031" stroke="#000022" stroke-miterlimit="10" stroke-linecap="round"/>
<path d="M169.718 318.666L122.006 347.56" stroke="#000022" stroke-miterlimit="10" stroke-linecap="round"/>
<path d="M101.302 326.578L134.928 369.981L145.942 362.273L133.934 343.075" stroke="#000022" stroke-miterlimit="10" stroke-linecap="round"/>
<path d="M129.218 416.038C128.469 416.269 127.683 416.35 126.903 416.276C126.123 416.203 125.365 415.976 124.673 415.608C123.981 415.241 123.367 414.74 122.868 414.135C122.369 413.53 121.993 412.833 121.763 412.082L97.8527 334.106H79.5187V412.152C79.5187 413.738 78.8903 415.258 77.7719 416.38C76.6534 417.501 75.1365 418.131 73.5548 418.131C71.9731 418.131 70.4561 417.501 69.3377 416.38C68.2192 415.258 67.5909 413.738 67.5909 412.152V334.106H53.2129L29.2927 412.077C28.8165 413.579 27.7682 414.831 26.3759 415.562C24.9835 416.293 23.3596 416.444 21.8572 415.981C20.3548 415.518 19.0954 414.479 18.3529 413.09C17.6103 411.702 17.4446 410.075 17.8917 408.565L40.7533 334.106H38.7654C36.3269 334.106 33.9883 333.135 32.264 331.406C30.5397 329.678 29.571 327.333 29.571 324.889C29.571 322.444 30.5397 320.099 32.264 318.371C33.9883 316.642 36.3269 315.671 38.7654 315.671H119.278C121.716 315.671 124.055 316.642 125.779 318.371C127.504 320.099 128.472 322.444 128.472 324.889C128.472 327.333 127.504 329.678 125.779 331.406C124.055 333.135 121.716 334.106 119.278 334.106H110.332L133.144 408.565C133.61 410.078 133.459 411.714 132.723 413.115C131.987 414.517 130.726 415.568 129.218 416.038Z" fill="#2081C3"/>
<path d="M37.3289 336.483C35.1656 336.141 33.195 335.036 31.7718 333.367C30.3487 331.699 29.5664 329.575 29.5659 327.38V327.38C29.5659 326.169 29.8039 324.97 30.2663 323.851C30.7286 322.732 31.4063 321.716 32.2606 320.86C33.1149 320.004 34.1291 319.325 35.2452 318.862C36.3613 318.399 37.5574 318.161 38.7652 318.162H119.278C121.716 318.162 124.055 319.133 125.779 320.862C127.504 322.591 128.472 324.935 128.472 327.38V327.38C128.472 329.824 127.504 332.169 125.779 333.898C124.055 335.626 121.716 336.597 119.278 336.597H38.7652C38.2858 336.597 37.8072 336.559 37.3339 336.483" stroke="#000022" stroke-miterlimit="10" stroke-linecap="round"/>
<path d="M186.049 209.773L206.515 212.105L203.374 218.508L172.327 215.618L172.317 215.593L164.425 218.343L136.533 228.069L130.694 211.253L165.553 199.096L174.091 185.813L179.25 188.294L175.483 193.994L198.195 180.392L200.457 184.891L183.922 196.839L205.238 188.897L207.365 195.887L186.084 203.206L208.741 199.4L211.231 205.474L186.049 209.773Z" fill="#FFCFBE"/>
<path d="M175.055 185.204L179.498 188.318L176.372 193.131L199.244 180.72L200.402 184.666L184.955 196.27L206.356 188.871L208.294 195.308L186.71 202.678L209.755 199.753L210.67 204.686L186.978 209.15L206.49 212.448L204.249 217.914L173.256 214.202L165.911 216.997L161.244 200.236L167.402 198.886L175.055 185.204Z" stroke="#000022" stroke-linecap="round" stroke-linejoin="round"/>
<path d="M163.306 60.5324C152 58.37 149.311 63.7711 140.693 64.3042C132.075 64.8373 135.848 74.5582 129.928 75.1013C124.009 75.6444 115.928 75.1013 108.449 79.7948C100.969 84.4883 98.1608 92.3706 88.877 92.8788C79.5932 93.387 65.3196 109.645 65.3196 109.645L75.7564 77.7221L76.4273 75.6643L76.0397 64.5633L75.5427 51.8878L119.154 31.918L129.556 41.1057L136.623 47.3338L140.599 49.2969L163.306 60.5324Z" fill="#FF874F"/>
<path d="M140.609 49.3116L139.431 49.8298L76.5168 77.398L75.7812 77.7218L76.0297 64.5631L129.556 41.1055L136.623 47.3485L140.609 49.3116Z" fill="#2081C3"/>
<path d="M139.615 46.8204L138.437 47.3386L75.5229 74.9068L74.7874 75.2306L75.4583 73.1729L75.0358 62.0719L128.562 38.6143L135.629 44.8573L139.615 46.8204Z" stroke="#000022" stroke-miterlimit="10" stroke-linecap="round"/>
<path d="M162.313 57.0442C151.006 54.8818 148.317 60.2828 139.699 60.8159C131.082 61.349 134.854 71.0699 128.935 71.613C123.015 72.1561 114.934 71.613 107.455 76.3065C99.9749 81 97.1669 88.8823 87.8831 89.3905C78.5993 89.8988 64.3257 106.157 64.3257 106.157L74.7625 74.2338L75.4334 72.176L75.0458 61.075L74.5488 48.3995L118.16 28.4297L128.562 37.6174L135.629 43.8455L139.605 45.8086L162.313 57.0442Z" stroke="#00001D" stroke-miterlimit="10"/>
<path d="M330.986 421.061C367.492 421.061 397.086 418.83 397.086 416.078C397.086 413.326 367.492 411.096 330.986 411.096C294.48 411.096 264.886 413.326 264.886 416.078C264.886 418.83 294.48 421.061 330.986 421.061Z" fill="#000022"/>
<path d="M175.189 245.423C175.189 245.423 247.666 223.619 199.999 150.068C199.999 150.068 267.043 148.976 238.268 72.6345C238.268 72.6345 295.466 84.9911 294.969 13.2432L316.34 409.352" stroke="#000022" stroke-miterlimit="10" stroke-linecap="round"/>
<path d="M138.109 280.784L20.8735 248.158L93.0367 129.396L125.301 142.759L138.109 280.784Z" fill="#FF874F"/>
<path d="M137.145 280.689L25.595 245.418L95.1986 129.969L124.496 142.779L131.499 207.098" stroke="#000022" stroke-miterlimit="10" stroke-linecap="round"/>
<path d="M71.7061 251.287L68.585 229.723L159.534 197.337L167.486 222.249L111.053 252.882C108.366 255.369 105.216 257.301 101.784 258.567C98.3515 259.833 94.7041 260.408 91.0499 260.26C87.3957 260.112 83.8064 259.243 80.4873 257.704C77.1681 256.164 74.1842 253.984 71.7061 251.287Z" fill="#FF874F"/>
<path d="M87.242 152.693L70.3741 211.885C68.1923 219.553 68.1973 228.911 69.9815 236.599C73.1622 250.281 90.1991 261.785 103.891 255.771C109.358 253.385 159.505 226.873 166.244 221.008L159.286 197.092L97.9373 218.517L124 145.274" stroke="#000022" stroke-miterlimit="10" stroke-linecap="round"/>
<path d="M70.0757 336.697V412.152C70.0757 413.738 70.704 415.259 71.8225 416.38C72.9409 417.501 74.4579 418.131 76.0396 418.131C77.6213 418.131 79.1382 417.501 80.2567 416.38C81.3751 415.259 82.0035 413.738 82.0035 412.152V337.23" stroke="#000022" stroke-miterlimit="10" stroke-linecap="round"/>
<path d="M49.2321 337.355L26.3108 412.092C25.8433 413.599 24.8003 414.86 23.4094 415.599C22.0184 416.338 20.3924 416.496 18.8858 416.038C18.1345 415.81 17.4354 415.436 16.8287 414.937C16.2219 414.438 15.7195 413.823 15.3501 413.129C14.9807 412.435 14.7517 411.674 14.6761 410.891C14.6006 410.107 14.68 409.317 14.9099 408.564L36.857 337.006" stroke="#000022" stroke-miterlimit="10" stroke-linecap="round"/>
<path d="M95.0447 336.358L118.264 412.092C118.495 412.844 118.872 413.543 119.373 414.148C119.875 414.754 120.49 415.254 121.184 415.621C121.879 415.988 122.639 416.213 123.42 416.285C124.202 416.356 124.99 416.273 125.739 416.038V416.038C126.488 415.808 127.183 415.431 127.787 414.93C128.39 414.43 128.89 413.815 129.256 413.121C129.622 412.427 129.849 411.667 129.923 410.886C129.996 410.104 129.915 409.315 129.685 408.565L108.091 337.096" stroke="#000022" stroke-miterlimit="10" stroke-linecap="round"/>
</svg>
